<svg xmlns="http://www.w3.org/2000/svg" viewBox="0 0 170 170"><defs><style>.cls-1{fill:#f9f9fa;}.cls-2{fill:#f8fafb;}</style></defs><title>Asset 3</title><g id="Layer_2" data-name="Layer 2"><g id="Layer_1-2" data-name="Layer 1"><path class="cls-1" d="M141.67,12A16.35,16.35,0,0,1,158,28.33V141.67A16.35,16.35,0,0,1,141.67,158H28.33A16.35,16.35,0,0,1,12,141.67V28.33A16.35,16.35,0,0,1,28.33,12H141.67m0-12H28.33A28.34,28.34,0,0,0,0,28.33V141.67A28.34,28.34,0,0,0,28.33,170H141.67A28.34,28.34,0,0,0,170,141.67V28.33A28.34,28.34,0,0,0,141.67,0Z"/><circle class="cls-2" cx="85.5" cy="87.5" r="37.5"/><path class="cls-1" d="M85.5,55A32.5,32.5,0,1,1,53,87.5,32.54,32.54,0,0,1,85.5,55m0-10A42.5,42.5,0,1,0,128,87.5,42.5,42.5,0,0,0,85.5,45Z"/><circle class="cls-2" cx="133.25" cy="37.75" r="7.75"/><path class="cls-1" d="M133.25,35.5A2.25,2.25,0,1,1,131,37.75a2.25,2.25,0,0,1,2.25-2.25m0-11A13.25,13.25,0,1,0,146.5,37.75,13.25,13.25,0,0,0,133.25,24.5Z"/></g></g></svg>