<svg xmlns="http://www.w3.org/2000/svg" viewBox="0 0 116.86 91.89"><defs><style>.cls-1{fill:#b73625;}</style></defs><title>Asset 10</title><g id="Layer_2" data-name="Layer 2"><g id="Layer_1-2" data-name="Layer 1"><path class="cls-1" d="M53.59,7.79A112.11,112.11,0,0,0,35.37,13a88.81,88.81,0,0,0-16.89,8.36A47.34,47.34,0,0,0,11.2,27a25.43,25.43,0,0,0-5.33,7.05A13.8,13.8,0,0,0,4.64,42.2,17.37,17.37,0,0,0,8.35,50,43,43,0,0,0,15,56.52c2.42,2.12,5,4.06,7.53,6a162.43,162.43,0,0,0,16.2,10.5,159.1,159.1,0,0,0,17.4,8.4c3,1.22,6,2.32,9.07,3.36q2.3.77,4.61,1.48l2.33.72,1.17.36c.37.1.7.21,1.07.29a49.56,49.56,0,0,0,9.38.92c3.19.06,6.4,0,9.58-.28a53,53,0,0,0,9.32-1.45,13.27,13.27,0,0,0,2-.7,4.12,4.12,0,0,0,.72-.4c.07,0,.44-.41.69-.65A23.46,23.46,0,0,0,109,81.65a21,21,0,0,0,3.22-8.24,21.19,21.19,0,0,0,.28-2.21c.06-.7,0-1.48,0-2.25,0-1.55-.13-3.14-.27-4.72A115.73,115.73,0,0,0,109,45.43a68.92,68.92,0,0,0-3-8.91,29.63,29.63,0,0,0-4.4-7.65A19.26,19.26,0,0,0,98.4,26c-.68-.53-1.31-1.08-2-1.62s-1.26-1.08-1.87-1.61c-2.47-2.16-4.85-4.28-7.33-6.19a52,52,0,0,0-7.66-5.1c-1.3-.78-2.7-1.29-4-1.93l-2.11-.73-1-.37-1.08-.26-2.14-.54L67,7.33A34.35,34.35,0,0,0,62.55,7a18.52,18.52,0,0,0-2.23,0l-2.24.1ZM52.21,1.16c1.72-.29,3.43-.6,5.15-.85L60,.12A21.11,21.11,0,0,1,62.63,0a39.3,39.3,0,0,1,5.3.42l2.63.41,2.58.66,1.29.35,1.25.47,2.48.95a51.44,51.44,0,0,1,4.68,2.39,58.45,58.45,0,0,1,8.41,5.93c2.62,2.14,5,4.43,7.41,6.61.59.56,1.18,1.09,1.77,1.62s1.18,1.07,1.77,1.55,1.1.92,1.93,1.65a12.82,12.82,0,0,1,1.05,1,11.58,11.58,0,0,1,.93,1.08,33.67,33.67,0,0,1,5,9.35,75,75,0,0,1,2.86,9.7,122.1,122.1,0,0,1,2.73,19.73c.09,1.66.15,3.33.13,5,0,.85,0,1.7-.13,2.62s-.22,1.75-.4,2.62a25.12,25.12,0,0,1-4.13,9.69,27.82,27.82,0,0,1-3.46,4,12.6,12.6,0,0,1-1.13,1,8,8,0,0,1-1.42.76,17.72,17.72,0,0,1-2.6.83,62.05,62.05,0,0,1-10,1.31c-3.3.2-6.61.25-9.92.13a54.08,54.08,0,0,1-10-1.14c-.42-.09-.87-.23-1.28-.35L71.24,90l-2.33-.73q-2.34-.75-4.67-1.54c-3.1-1.07-6.19-2.21-9.22-3.47a162.38,162.38,0,0,1-17.77-8.47A178.06,178.06,0,0,1,20.53,65.35c-2.66-1.94-5.34-3.84-7.89-5.93a47.51,47.51,0,0,1-7.45-6.88A21.5,21.5,0,0,1,.36,43a18.31,18.31,0,0,1,1.19-10.9,30.33,30.33,0,0,1,6-8.71,53.28,53.28,0,0,1,7.82-6.64A94.07,94.07,0,0,1,33.1,7.25,118.69,118.69,0,0,1,52.21,1.16Z"/></g></g></svg>