<svg xmlns="http://www.w3.org/2000/svg" viewBox="0 0 48.03 47.99"><defs><style>.cls-1{fill:#b73625;}</style></defs><title>Asset 11</title><g id="Layer_2" data-name="Layer 2"><g id="Layer_1-2" data-name="Layer 1"><path class="cls-1" d="M27.87,6.67A47.67,47.67,0,0,0,11.93,7.76a14.45,14.45,0,0,0-6.52,3.55,8.48,8.48,0,0,0-1.85,3A9.79,9.79,0,0,0,3.13,18c.12,2.89.14,5.78.22,8.6,0,1.42.1,2.82.25,4.16a15.34,15.34,0,0,0,.81,3.79,7.52,7.52,0,0,0,1.9,2.89A9.26,9.26,0,0,0,7.7,38.49c.54.32,1.11.63,1.71.91a35.47,35.47,0,0,0,7.67,2.42,26.69,26.69,0,0,0,7.74.49,7.93,7.93,0,0,0,3-.85,2.21,2.21,0,0,0,.7-.61.33.33,0,0,1,.07-.13l.21-.36c.15-.26.31-.52.43-.78a14.86,14.86,0,0,0,1.22-3.29A29.51,29.51,0,0,1,31.9,31.8a32.58,32.58,0,0,1,2.29-4.31l1.24-1.87c.34-.51.66-1,1-1.58a25.71,25.71,0,0,0,2.71-6.68,14.2,14.2,0,0,0,.37-3.11A7,7,0,0,0,39,11.8a5,5,0,0,0-1.35-1.93,9.67,9.67,0,0,0-2.56-1.6A24.64,24.64,0,0,0,27.87,6.67ZM28.09,0a32.24,32.24,0,0,1,9.55,1.18,17.46,17.46,0,0,1,5,2.39,12.79,12.79,0,0,1,4,4.64A13.8,13.8,0,0,1,48,14a18.59,18.59,0,0,1-.63,5.36,30,30,0,0,1-4.07,8.93c-.44.68-.9,1.34-1.4,2l-1.25,1.6a24.69,24.69,0,0,0-2,3.07,29.49,29.49,0,0,0-1.5,3.53A21.56,21.56,0,0,1,34.91,43c-.22.36-.47.68-.71,1-.14.18-.22.31-.4.52s-.4.47-.6.7a8.69,8.69,0,0,1-2.79,1.82,10.75,10.75,0,0,1-2.76.75,16.15,16.15,0,0,1-2.56.18,32,32,0,0,1-9.18-1.58A40.69,40.69,0,0,1,7.6,42.88a23.35,23.35,0,0,1-2-1.25A12.36,12.36,0,0,1,3.72,40a11.11,11.11,0,0,1-2.48-4.35A19,19,0,0,1,.46,31C.35,29.54.33,28.09.32,26.65c0-2.87,0-5.68-.26-8.48a14.54,14.54,0,0,1,.33-4.79A12,12,0,0,1,2.62,8.94a19.42,19.42,0,0,1,7.69-5.6A46.52,46.52,0,0,1,28.09,0Z"/></g></g></svg>