<svg xmlns="http://www.w3.org/2000/svg" viewBox="0 0 165.82 145.42"><defs><style>.cls-1{fill:#b73625;}</style></defs><title>Asset 8</title><g id="Layer_2" data-name="Layer 2"><g id="Layer_1-2" data-name="Layer 1"><path class="cls-1" d="M13.46,29c1.68-2,3.39-3.9,5.14-5.79s3.74-3.65,5.6-5.47c1-.88,2-1.72,3-2.58s2-1.74,3.08-2.52A68.84,68.84,0,0,1,37,8.1l1.76-1a16.41,16.41,0,0,1,1.8-1l3.74-1.76a52.26,52.26,0,0,1,7.86-2.56A67.08,67.08,0,0,1,68.07,0c5.18,0,10.18.25,15.11.45,2.44.07,4.91.19,7.33.19l3.7,0c1.37,0,2.74,0,4.08.2a60.67,60.67,0,0,1,15.45,3.55A89.5,89.5,0,0,1,127.79,11a104.31,104.31,0,0,1,24,18.94,71.6,71.6,0,0,1,9.33,12.28,41.92,41.92,0,0,1,3.32,7.15,23.06,23.06,0,0,1,1.35,8l-.67,15c-.25,5-.56,10-1.06,15s-1.07,10-2,14.92A80.35,80.35,0,0,1,158,116.85c-.44,1.2-1,2.35-1.53,3.52s-1.17,2.29-1.87,3.39a27.8,27.8,0,0,1-4.85,6.16,22.46,22.46,0,0,1-6.65,4.4l-1.91.66c-.64.23-1.22.35-1.83.53-1.21.33-2.43.63-3.64.94q-14.61,3.53-29.42,5.81a258.53,258.53,0,0,1-29.92,3.1c-2.53.09-5.07.08-7.65,0a42,42,0,0,1-7.87-1,19.1,19.1,0,0,1-2.06-.61l-1.06-.41c-.35-.16-.72-.37-1.09-.57-.18-.1-.35-.19-.54-.31l-.55-.44c-.37-.29-.78-.65-.91-.77l-.59-.53-.68-.57c-1.84-1.52-3.82-3.06-5.77-4.62A217.76,217.76,0,0,1,25,115.36c-7-7.4-13.51-15.53-18.27-25A63.13,63.13,0,0,1,1.22,75.28,52.19,52.19,0,0,1,.27,58.81a50.29,50.29,0,0,1,4.53-16c.6-1.24,1.18-2.5,1.82-3.71l2.13-3.5c.36-.58.69-1.18,1.09-1.73L11,32.27Zm9.1,7.67C16.62,43.55,12.1,51.49,10.83,60.17A42.93,42.93,0,0,0,11,73.36,53.41,53.41,0,0,0,15,86.43c3.74,8.55,9.33,16.48,15.6,23.84a205.28,205.28,0,0,0,20.82,20.67c1.86,1.64,3.73,3.24,5.64,5l.72.66.76.75a4.16,4.16,0,0,0,.5.46l.16.16a1.28,1.28,0,0,0,.26.16c.18.1.34.22.54.33l.67.29a14.43,14.43,0,0,0,1.49.52,38.62,38.62,0,0,0,6.87,1.16c2.38.21,4.81.3,7.25.3,4.89,0,9.81-.2,14.73-.56s9.83-.9,14.73-1.54A287.73,287.73,0,0,0,135,133.37a67.21,67.21,0,0,0,7-1.94,19.28,19.28,0,0,0,5.73-3.74A24.67,24.67,0,0,0,152,122.2a38.29,38.29,0,0,0,3.14-6.47,76.26,76.26,0,0,0,3.8-14.09A142.64,142.64,0,0,0,160.81,87c.75-9.81.81-19.8,1-29.66-.05-4.39-2.09-8.82-4.55-12.81a63.57,63.57,0,0,0-9.11-11.07A97.7,97.7,0,0,0,124.7,16.71a83.34,83.34,0,0,0-13.25-5.36A53.6,53.6,0,0,0,97.77,8.94c-1.14-.08-2.26,0-3.38,0l-3.74.16c-2.55.13-5.06.14-7.58.21-5,.06-10,0-14.72.28-9.53.45-18.09,2.65-25.55,7.8a61.86,61.86,0,0,0-5.47,4.06c-.91.69-1.73,1.56-2.6,2.32S33,25.34,32.18,26.16c-1.62,1.72-3.28,3.39-4.87,5.15S24.19,34.92,22.56,36.68Z"/></g></g></svg>