<?xml version="1.0" encoding="utf-8"?>
<!-- Generator: Adobe Illustrator 22.0.1, SVG Export Plug-In . SVG Version: 6.00 Build 0)  -->
<svg version="1.1" id="Layer_1" xmlns="http://www.w3.org/2000/svg" xmlns:xlink="http://www.w3.org/1999/xlink" x="0px" y="0px"
	 viewBox="0 0 170 170" style="enable-background:new 0 0 170 170;" xml:space="preserve">
<style type="text/css">
	.st0{fill:#B93827;}
</style>
<g>
	<g>
		<path class="st0" d="M141.7,12c9,0,16.3,7.3,16.3,16.3v113.3c0,9-7.3,16.3-16.3,16.3H28.3c-9,0-16.3-7.3-16.3-16.3V28.3
			c0-9,7.3-16.3,16.3-16.3H141.7 M141.7,0H28.3C12.7,0,0,12.7,0,28.3v113.3C0,157.3,12.7,170,28.3,170h113.3
			c15.6,0,28.3-12.7,28.3-28.3V28.3C170,12.7,157.3,0,141.7,0L141.7,0z"/>
	</g>
	<g>
		<circle class="st0" cx="85.5" cy="87.5" r="37.5"/>
		<path class="st0" d="M85.5,55c17.9,0,32.5,14.6,32.5,32.5S103.4,120,85.5,120S53,105.4,53,87.5S67.6,55,85.5,55 M85.5,45
			C62,45,43,64,43,87.5C43,111,62,130,85.5,130S128,111,128,87.5C128,64,109,45,85.5,45L85.5,45z"/>
	</g>
	<g>
		<circle class="st0" cx="133.3" cy="37.8" r="7.8"/>
		<path class="st0" d="M133.3,35.5c1.2,0,2.3,1,2.3,2.3s-1,2.3-2.3,2.3s-2.3-1-2.3-2.3S132,35.5,133.3,35.5 M133.3,24.5
			c-7.3,0-13.3,5.9-13.3,13.3c0,7.3,5.9,13.3,13.3,13.3s13.3-5.9,13.3-13.3C146.5,30.4,140.6,24.5,133.3,24.5L133.3,24.5z"/>
	</g>
</g>
</svg>
