<svg xmlns="http://www.w3.org/2000/svg" viewBox="0 0 129.24 163.32"><defs><style>.cls-1{fill:#b73625;}</style></defs><title>Asset 9</title><g id="Layer_2" data-name="Layer 2"><g id="Layer_1-2" data-name="Layer 1"><path class="cls-1" d="M34.8,33.78C41.64,28,48.36,21.88,55.44,16.16c3.56-2.85,7.18-5.64,11-8.15,1.92-1.27,3.92-2.43,6-3.54a49.67,49.67,0,0,1,6.41-2.83,24.39,24.39,0,0,1,14.22-1,20.66,20.66,0,0,1,6.56,3.12c.48.36,1,.71,1.44,1.09l1.34,1.2c.86.81,1.66,1.63,2.44,2.49a85.9,85.9,0,0,1,8.39,11,115.29,115.29,0,0,1,12.08,24.62,75.92,75.92,0,0,1,3.44,13.42,40.51,40.51,0,0,1,.46,7.08A17.53,17.53,0,0,1,127.57,72a9.79,9.79,0,0,1-2.6,3.25l-2.64,2.12-5.24,4.25c-6.9,5.72-13.67,11.66-19.38,18.32a52.86,52.86,0,0,0-3.92,5.17,24,24,0,0,0-2.8,5.46l-.22.69-.16.68a3.79,3.79,0,0,0-.11.66l-.1.73A11.38,11.38,0,0,1,89,117.4a37.75,37.75,0,0,1-4.21,5.94A102.51,102.51,0,0,1,75,133.25c-3.41,3.09-7,6-10.61,8.79A147.71,147.71,0,0,1,41,156.74a76.17,76.17,0,0,1-13.12,5.17,40.39,40.39,0,0,1-7.22,1.33,21.93,21.93,0,0,1-7.82-.66A14.25,14.25,0,0,1,5.73,158l-.66-.84-.53-.87c-.34-.57-.71-1.15-1-1.73l-.76-1.79-.38-.89-.27-.9A51.43,51.43,0,0,1,0,136.72a130.13,130.13,0,0,1,2.75-27.55A231.66,231.66,0,0,1,9.62,82.63C11,78.28,12.55,74,14.17,69.71s3.43-8.47,5.35-12.63A124.93,124.93,0,0,1,26,44.89,49.08,49.08,0,0,1,34.8,33.78ZM37.56,37a45.09,45.09,0,0,0-7.73,10.23,121.79,121.79,0,0,0-6,11.85,209.63,209.63,0,0,0-9.08,25.17c-1.25,4.29-2.41,8.6-3.43,13s-2,8.7-2.72,13.09S7.24,119,6.8,123.43a98.14,98.14,0,0,0-.57,13.13A45.34,45.34,0,0,0,8.06,149l.22.72.29.67.57,1.33c.22.41.47.78.7,1.18l.35.59.38.48a8,8,0,0,0,4.06,2.64,16.23,16.23,0,0,0,5.61.49A33.89,33.89,0,0,0,26.33,156a70.06,70.06,0,0,0,12.1-4.64A148.18,148.18,0,0,0,61,137.51c3.58-2.63,7.07-5.39,10.42-8.29A97.79,97.79,0,0,0,80.85,120a31.94,31.94,0,0,0,3.73-5,7.37,7.37,0,0,0,.91-2.2l.14-1a8,8,0,0,1,.2-1l.25-1,.31-.92a28.25,28.25,0,0,1,3.47-6.51,58.2,58.2,0,0,1,4.37-5.54c6.21-6.93,13.22-12.79,20.32-18.45l5.37-4.18,2.69-2.06a6.08,6.08,0,0,0,1.63-2,13.82,13.82,0,0,0,1.33-5.75,37.64,37.64,0,0,0-.35-6.42,72.94,72.94,0,0,0-3.12-12.83,111.23,111.23,0,0,0-11.45-24.06,73.33,73.33,0,0,0-8-10.58A29.68,29.68,0,0,0,97.9,6.24a17.85,17.85,0,0,0-5.6-2.68c-4-1.08-8.35-.38-12.39,1.06a54.2,54.2,0,0,0-11.55,6.21C64.69,13.32,61.2,16.12,57.77,19,50.91,24.75,44.34,30.94,37.56,37Z"/></g></g></svg>